<svg id="Layer_1" data-name="Layer 1" xmlns="http://www.w3.org/2000/svg" viewBox="0 0 1920 300"><defs><style>.cls-1{fill:#2d2d2d;}</style></defs><title>LetterLeser-Dark</title><path class="cls-1" d="M315.18,85.67q0,13.08-10.54,22a34.86,34.86,0,0,1-23.23,8.51q-14.85,0-24.76-9.78t-8.76-24.63c-2.71-.33-6.77.72-12.19,3.18q-18,8.11-22.09,60.3-4.19,51.54-60,70.71H304q-5.46,20.31-34,20.31H37q10.67-30.72,26.28-30.72,7,0,24.25,5.59t24.88,5.58q21.84,0,35.68-39.73l20.18-58.53q22.1-63.72,110.07-63.73,14.73,0,25.26,7.87Q315.18,71.32,315.18,85.67Z"/><path class="cls-1" d="M463.84,215.92q-2.67,9.78-12.19,15.36a37.88,37.88,0,0,1-19.42,4.95H361.52q-61.71,0-61.7-37.19,0-23.86,21.07-37.45,18.15-11.68,43.16-11.68h18.41q16.13,0,28.31,5,16.26,6.6,17,20.06t-13.07,22.59h-42l13.71-27.29H359.61L349.2,200.81a15.53,15.53,0,0,0-.89,4.83q0,10.28,16.51,10.28Z"/><path class="cls-1" d="M575.94,215.92q-6,20.31-31.74,20.31H479.45q-18.78,0-18.78-13.2a20.74,20.74,0,0,1,1.39-7.11l16.13-45.7H457.36l8-20.31q22.22-5.72,33-14.6,12.19-10,26-36.31h24.75l-17.9,50.91H564q-7.87,20.31-32,20.31h-8.38l-15.86,45.7Z"/><path class="cls-1" d="M688.8,215.92q-6,20.31-31.74,20.31H592.32q-18.8,0-18.79-13.2a20.74,20.74,0,0,1,1.39-7.11l16.13-45.7H570.23l8-20.31q22.21-5.72,33-14.6,12.19-10,26-36.31H662l-17.9,50.91h32.76q-7.87,20.31-32,20.31H636.5l-15.87,45.7Z"/><path class="cls-1" d="M848.38,215.92q-2.67,9.78-12.19,15.36a37.88,37.88,0,0,1-19.42,4.95H746.06q-61.71,0-61.7-37.19,0-23.86,21.07-37.45,18.15-11.68,43.17-11.68H767q16.13,0,28.31,5,16.26,6.6,17,20.06t-13.08,22.59h-42l13.71-27.29H744.15l-10.41,30.59a15.53,15.53,0,0,0-.89,4.83q0,10.28,16.51,10.28Z"/><path class="cls-1" d="M996.28,215.92q0,8.9-9.77,15a33.79,33.79,0,0,1-18,5.33H919.85q-19.29,0-19.29-16a26.52,26.52,0,0,1,1.65-8.76l14.34-41.26h-27l-14.09,36.43q-3.55,9.27-15.36,9.27H846.6l16.63-45.7a22.43,22.43,0,0,1-17.64-22.09q0-14.59,13.58-22.6,11.3-6.6,26.92-6.6h20.56l-10.66,31h70.2l-23.1,66Z"/><path class="cls-1" d="M1274.94,85.67q0,13.08-10.53,22a34.88,34.88,0,0,1-23.24,8.51q-14.85,0-24.75-9.78t-8.76-24.63c-2.71-.33-6.78.72-12.19,3.18q-18,8.11-22.09,60.3-4.19,51.54-60.05,70.71h150.44q-5.46,20.31-34,20.31h-233q10.66-30.72,26.28-30.72,7,0,24.25,5.59t24.88,5.58q21.83,0,35.67-39.73l20.19-58.53q22.1-63.72,110.07-63.73,14.71,0,25.26,7.87Q1274.94,71.32,1274.94,85.67Z"/><path class="cls-1" d="M1423.61,215.92q-2.67,9.78-12.19,15.36a37.92,37.92,0,0,1-19.43,4.95h-70.71q-61.69,0-61.7-37.19,0-23.86,21.08-37.45,18.15-11.68,43.16-11.68h18.41q16.11,0,28.31,5,16.24,6.6,17,20.06t-13.08,22.59h-42l13.71-27.29h-26.78L1309,200.81a15.25,15.25,0,0,0-.89,4.83q0,10.28,16.5,10.28Z"/><path class="cls-1" d="M1576.2,215.92q-.51,8.51-9.71,14.41a36.5,36.5,0,0,1-20.12,5.9h-96.49q-27.8,0-27.8-17a23.5,23.5,0,0,1,.26-3.3q1-7.62,8.12-11.8a25.64,25.64,0,0,1,14-3.56q13.71.38,37.19,15.11,6.74-8.38,6.73-17,0-4.32-5.46-19.68l-14.34,13.07h-25.39l33.77-31.23a39.38,39.38,0,0,1-3.18-6.47,34.41,34.41,0,0,1-1.78-10.66l31.24-33.27q21.06,3.56,21.07,19.17a28.69,28.69,0,0,1-5.46,16.89q4.7,12.44,9.52,24.88,5.84,16,5.84,25.9,0,10.92-8.63,18.66Z"/><path class="cls-1" d="M1735.53,215.92q-2.67,9.78-12.19,15.36a37.88,37.88,0,0,1-19.42,4.95h-70.71q-61.71,0-61.7-37.19,0-23.86,21.07-37.45,18.15-11.68,43.16-11.68h18.41q16.13,0,28.31,5,16.24,6.6,17,20.06t-13.07,22.59h-42l13.71-27.29H1631.3l-10.41,30.59a15.53,15.53,0,0,0-.89,4.83q0,10.28,16.51,10.28Z"/><path class="cls-1" d="M1883.43,215.92q0,8.9-9.78,15a33.73,33.73,0,0,1-18,5.33H1807q-19.29,0-19.29-16a26.52,26.52,0,0,1,1.65-8.76l14.34-41.26h-27l-14.09,36.43q-3.55,9.27-15.36,9.27h-13.46l16.63-45.7a22,22,0,0,1-12.76-7.93,22.2,22.2,0,0,1-4.88-14.16q0-14.59,13.58-22.6,11.29-6.6,26.91-6.6h20.57l-10.66,31h70.2l-23.1,66Z"/></svg>