<svg id="Layer_1" data-name="Layer 1" xmlns="http://www.w3.org/2000/svg" viewBox="0 0 300 300"><defs><style>.cls-1{fill:#2d2d2d;}</style></defs><title>Logout-Dark</title><path class="cls-1" d="M151.61,10.86A139.34,139.34,0,0,0,21,98a4.36,4.36,0,0,0,4,6H48.31a4.36,4.36,0,0,0,3.89-2.44A109.27,109.27,0,0,1,153.89,40.92c56.82,2,103,47.94,105.18,104.75a109.15,109.15,0,0,1-206.9,52.71A4.33,4.33,0,0,0,48.29,196H25a4.36,4.36,0,0,0-4,6,139.34,139.34,0,0,0,129,87.12c77.1,0,139.75-63,139.15-140.25C288.56,73.42,227.09,11.72,151.61,10.86Z"/><path class="cls-1" d="M37.31,154.37l63.92,47a5.43,5.43,0,0,0,8.64-4.37V103a5.43,5.43,0,0,0-8.64-4.37l-63.92,47A5.42,5.42,0,0,0,37.31,154.37Z"/><rect class="cls-1" x="87.13" y="129.93" width="136.65" height="40.14" rx="5.53"/></svg>