<svg xmlns="http://www.w3.org/2000/svg" width="151.228" height="52.57" viewBox="0 0 151.228 52.57">
  <g id="Oswego_Logo" data-name="Oswego Logo" transform="translate(-10.86 -9.14)">
    <path id="Path_290" data-name="Path 290" d="M139.853,85.522c0,6.345-4.791,11.367-10.805,11.367A11.042,11.042,0,0,1,118.24,85.553C118.24,79.058,123,74,129.079,74S139.853,79.058,139.853,85.522Zm-18.474-.067c0,5.157,3.372,9.22,7.669,9.22s7.672-4.03,7.672-9.22-3.372-9.251-7.672-9.251S121.379,80.233,121.379,85.454Z" transform="translate(-77.204 -46.633)" fill="#f2f2f2"/>
    <path id="Path_291" data-name="Path 291" d="M211.282,79.87a5.555,5.555,0,0,0-5.584-3.653c-2.512,0-4.429,1.585-4.429,3.653a3,3,0,0,0,1.849,3.007,34.312,34.312,0,0,0,3.67,1.453c4.3,1.588,5.98,3.274,5.98,6.048,0,3.836-3.139,6.511-7.588,6.511a11.825,11.825,0,0,1-5.353-1.321,1.346,1.346,0,0,0-.562-.132c-.365,0-.663.329-.762.826V90.974a6.708,6.708,0,0,0,6.379,3.7c2.875,0,4.856-1.52,4.856-3.735a3.153,3.153,0,0,0-1.189-2.577c-.728-.562-1.751-1.023-4.46-1.967-4.2-1.489-5.851-3.206-5.851-6.182,0-3.569,3.139-6.213,7.4-6.213a7.626,7.626,0,0,1,3.5.8,5.329,5.329,0,0,0,1.388.43c.363,0,.562-.2.759-.663Z" transform="translate(-134.723 -46.633)" fill="#f2f2f2"/>
    <path id="Path_292" data-name="Path 292" d="M260.294,75.458h1.883l5.685,18.606,4-16.861a2.529,2.529,0,0,0,.1-.629c0-.562-.2-.843-.826-1.124H275.3c-.762.365-1.059.762-1.324,1.886l-4.791,20.323h-3.206l-5.188-17-5.314,17H252.33l-4.825-20.323c-.267-1.222-.464-1.487-1.225-1.886h4.859c-.528.166-.728.4-.728.826a6.376,6.376,0,0,0,.132.927l3.968,16.659Z" transform="translate(-169.262 -47.676)" fill="#f2f2f2"/>
    <path id="Path_293" data-name="Path 293" d="M351.261,95.434h8.594c1.222,0,1.585-.23,2.015-1.287v3.372H347.36c.694-.23.894-.562.894-1.585V77.024c0-1.026-.23-1.388-.894-1.554h13.981v3.308c-.3-.958-.66-1.222-1.751-1.222h-8.329v7.5h7.568a1.318,1.318,0,0,0,1.52-1.026v4.1c-.23-.759-.66-.989-1.652-.989h-7.436Z" transform="translate(-241.937 -47.69)" fill="#f2f2f2"/>
    <path id="Path_294" data-name="Path 294" d="M417.782,80.5c-1.287-2.909-3.271-4.328-6.112-4.328-4.463,0-7.8,3.979-7.8,9.319s3.139,9.153,7.568,9.153a8.593,8.593,0,0,0,4-1v-5.21c0-1.057-.264-1.388-1.321-1.686h5.418c-.925.264-1.088.528-1.088,1.686v6.281a13.3,13.3,0,0,1-7.337,2.147c-6.149,0-10.378-4.561-10.378-11.2,0-6.708,4.5-11.7,10.544-11.7,1.818,0,2.642.23,5.022,1.321a1.883,1.883,0,0,0,.728.23c.3,0,.528-.166.759-.562Z" transform="translate(-280.309 -46.604)" fill="#f2f2f2"/>
    <path id="Path_295" data-name="Path 295" d="M493.7,85.522c0,6.345-4.794,11.367-10.808,11.367A11.04,11.04,0,0,1,472.09,85.553C472.082,79.058,476.842,74,482.92,74S493.7,79.058,493.7,85.522Zm-18.474-.067c0,5.157,3.372,9.22,7.666,9.22s7.669-4.03,7.669-9.22S487.192,76.2,482.9,76.2s-7.675,4.03-7.675,9.251Z" transform="translate(-331.615 -46.633)" fill="#f2f2f2"/>
    <path id="Path_296" data-name="Path 296" d="M124.657,171.18a2.437,2.437,0,0,1-1.082-.281.329.329,0,0,1-.185-.281.354.354,0,0,1,.363-.343.337.337,0,0,1,.155.037,1.968,1.968,0,0,0,.77.2.528.528,0,0,0,.59-.562c0-.891-1.768-.776-1.768-2.094a1.23,1.23,0,0,1,1.329-1.2,2.074,2.074,0,0,1,.891.211.357.357,0,0,1,.256.332.348.348,0,0,1-.357.337.491.491,0,0,1-.16-.031,1.627,1.627,0,0,0-.641-.174c-.306,0-.517.146-.517.472,0,.8,1.762.719,1.762,2.088A1.292,1.292,0,0,1,124.657,171.18Z" transform="translate(-80.907 -113.247)" fill="#f2f2f2"/>
    <path id="Path_297" data-name="Path 297" d="M140.59,167.609h-.674v3.4a.354.354,0,0,1-.368.351.365.365,0,0,1-.377-.357v-3.145a.256.256,0,0,0-.247-.253h-.447a.343.343,0,0,1-.357-.332.348.348,0,0,1,.357-.337h2.113a.335.335,0,1,1,0,.669Z" transform="translate(-91.497 -113.455)" fill="#f2f2f2"/>
    <path id="Path_298" data-name="Path 298" d="M169.79,167.609h-.674v3.4a.354.354,0,0,1-.371.351.365.365,0,0,1-.374-.357v-3.145a.256.256,0,0,0-.25-.253h-.444a.343.343,0,0,1-.357-.332.348.348,0,0,1,.357-.337h2.113a.346.346,0,0,1,.348.337.34.34,0,0,1-.348.332Z" transform="translate(-112.492 -113.455)" fill="#f2f2f2"/>
    <path id="Path_299" data-name="Path 299" d="M185.771,171.3h-1.6a.368.368,0,0,1-.382-.348V167.3a.374.374,0,0,1,.382-.357h1.591a.343.343,0,0,1,.351.329.354.354,0,0,1-.357.346H184.54v.826a.256.256,0,0,0,.256.256h.7a.332.332,0,1,1,0,.66h-.955v1.037a.25.25,0,0,0,.25.25h.986a.332.332,0,1,1,0,.66Z" transform="translate(-124.333 -113.455)" fill="#f2f2f2"/>
    <path id="Path_300" data-name="Path 300" d="M210.984,171.244a1.2,1.2,0,0,1-1.374-1.324v-2.827a.365.365,0,0,1,.374-.354.36.36,0,0,1,.377.348v2.833c0,.444.152.674.629.674s.7-.2.7-.674v-2.827a.368.368,0,0,1,.377-.354.357.357,0,0,1,.374.348v2.844C212.44,170.721,211.982,171.244,210.984,171.244Z" transform="translate(-142.897 -113.31)" fill="#f2f2f2"/>
    <path id="Path_301" data-name="Path 301" d="M230.111,171.152h-.228a.357.357,0,0,1-.332-.191l-1.147-2.411c-.017-.031-.037-.045-.051-.045a.076.076,0,0,0-.062.07v2.279a.371.371,0,0,1-.377.362.365.365,0,0,1-.377-.348v-3.729a.374.374,0,0,1,.382-.357h.23a.365.365,0,0,1,.337.191l1.138,2.422c.02.039.039.053.059.053a.084.084,0,0,0,.056-.07v-2.293a.368.368,0,0,1,.374-.357.36.36,0,0,1,.377.351v3.729A.368.368,0,0,1,230.111,171.152Z" transform="translate(-155.789 -113.303)" fill="#f2f2f2"/>
    <path id="Path_302" data-name="Path 302" d="M246.772,171.311h-1.425a.332.332,0,0,1-.337-.318.323.323,0,0,1,.337-.318h.337v-2.869a.222.222,0,0,0-.225-.216h-.112a.32.32,0,0,1,0-.641h1.425a.329.329,0,0,1,.332.318.323.323,0,0,1-.332.318h-.337v2.878a.216.216,0,0,0,.216.222h.121a.323.323,0,0,1,.332.318A.329.329,0,0,1,246.772,171.311Z" transform="translate(-168.349 -113.462)" fill="#f2f2f2"/>
    <path id="Path_303" data-name="Path 303" d="M260,171.013a.416.416,0,0,1-.407.242.407.407,0,0,1-.4-.242l-1.166-3.805a.354.354,0,0,1,.382-.433.433.433,0,0,1,.407.357l.75,2.858a.042.042,0,0,0,.039.037.037.037,0,0,0,.037-.037l.733-2.872a.419.419,0,0,1,.407-.343.354.354,0,0,1,.379.433Z" transform="translate(-177.701 -113.335)" fill="#f2f2f2"/>
    <path id="Path_304" data-name="Path 304" d="M277.678,171.3h-1.6a.368.368,0,0,1-.382-.348V167.3a.374.374,0,0,1,.382-.357h1.591a.34.34,0,0,1,.349.329.354.354,0,0,1-.354.346H276.45v.826a.256.256,0,0,0,.256.256h.7a.332.332,0,1,1,0,.66h-.955v1.037a.25.25,0,0,0,.247.25h.986a.332.332,0,1,1,0,.66Z" transform="translate(-190.415 -113.455)" fill="#f2f2f2"/>
    <path id="Path_305" data-name="Path 305" d="M307.277,171.18a2.428,2.428,0,0,1-1.082-.281.329.329,0,0,1-.185-.281.36.36,0,0,1,.517-.306,1.967,1.967,0,0,0,.767.2.531.531,0,0,0,.593-.562c0-.891-1.77-.776-1.77-2.094a1.232,1.232,0,0,1,1.332-1.2,2.085,2.085,0,0,1,.891.211.354.354,0,0,1,.253.332.348.348,0,0,1-.354.337.492.492,0,0,1-.16-.031,1.63,1.63,0,0,0-.644-.174c-.3,0-.514.146-.514.472,0,.8,1.762.719,1.762,2.088A1.292,1.292,0,0,1,307.277,171.18Z" transform="translate(-212.207 -113.247)" fill="#f2f2f2"/>
    <path id="Path_306" data-name="Path 306" d="M323.025,171.311H321.6a.332.332,0,0,1-.337-.318.323.323,0,0,1,.337-.318h.337v-2.869a.219.219,0,0,0-.222-.216H321.6a.32.32,0,1,1,0-.641h1.428a.326.326,0,0,1,.329.318.32.32,0,0,1-.329.318h-.337v2.878a.214.214,0,0,0,.216.222h.121a.32.32,0,0,1,.329.318A.326.326,0,0,1,323.025,171.311Z" transform="translate(-223.171 -113.462)" fill="#f2f2f2"/>
    <path id="Path_307" data-name="Path 307" d="M336.68,167.609h-.674v3.4a.354.354,0,0,1-.371.351.365.365,0,0,1-.374-.357v-3.145a.256.256,0,0,0-.25-.253h-.444a.343.343,0,0,1-.357-.332.348.348,0,0,1,.357-.337h2.113a.346.346,0,0,1,.349.337A.34.34,0,0,1,336.68,167.609Z" transform="translate(-232.482 -113.455)" fill="#f2f2f2"/>
    <path id="Path_308" data-name="Path 308" d="M352.285,167.273l-1.093,2.037a.208.208,0,0,0-.034.107v1.464a.36.36,0,0,1-.377.351.365.365,0,0,1-.374-.357v-1.54l-1.093-2.049a.32.32,0,0,1-.045-.16.368.368,0,0,1,.374-.357.382.382,0,0,1,.337.2l.68,1.273c.034.056.07.107.135.107s.1-.051.126-.107l.694-1.287a.374.374,0,0,1,.332-.2.357.357,0,0,1,.337.514Z" transform="translate(-243.31 -113.325)" fill="#f2f2f2"/>
    <path id="Path_309" data-name="Path 309" d="M379.225,171.124c-1.3,0-1.475-1.5-1.475-2.234s.171-2.31,1.475-2.31,1.47,1.546,1.47,2.31S380.538,171.124,379.225,171.124Zm0-3.92c-.7,0-.705,1.279-.705,1.686,0,.368.02,1.621.705,1.621s.683-1.259.683-1.621S379.914,167.2,379.225,167.2Z" transform="translate(-263.787 -113.196)" fill="#f2f2f2"/>
    <path id="Path_310" data-name="Path 310" d="M397.107,167.589H395.89v.843a.253.253,0,0,0,.25.247h.705a.332.332,0,1,1,0,.66h-.955v1.655a.363.363,0,0,1-.368.357.371.371,0,0,1-.382-.357v-3.712a.374.374,0,0,1,.382-.363h1.591a.343.343,0,0,1,.351.337A.348.348,0,0,1,397.107,167.589Z" transform="translate(-276.29 -113.44)" fill="#f2f2f2"/>
    <path id="Path_311" data-name="Path 311" d="M423.488,171.152h-.23a.354.354,0,0,1-.329-.191l-1.144-2.411c-.02-.031-.037-.045-.051-.045a.079.079,0,0,0-.065.07v2.279a.371.371,0,0,1-.374.363.363.363,0,0,1-.377-.348v-3.729a.374.374,0,0,1,.382-.357h.23a.365.365,0,0,1,.337.191l1.124,2.422c.02.039.039.053.056.053a.091.091,0,0,0,.059-.07v-2.293a.368.368,0,0,1,.374-.357.36.36,0,0,1,.377.351v3.729A.368.368,0,0,1,423.488,171.152Z" transform="translate(-294.825 -113.303)" fill="#f2f2f2"/>
    <path id="Path_312" data-name="Path 312" d="M441.258,171.3h-1.6a.368.368,0,0,1-.382-.348V167.3a.374.374,0,0,1,.382-.357h1.591a.343.343,0,0,1,.351.329.354.354,0,0,1-.357.346h-1.2v.826a.256.256,0,0,0,.256.256h.7a.332.332,0,1,1,0,.66h-.955v1.037a.25.25,0,0,0,.247.25h.986a.332.332,0,1,1,0,.66Z" transform="translate(-308.026 -113.455)" fill="#f2f2f2"/>
    <path id="Path_313" data-name="Path 313" d="M456.294,171.007c-.045.2-.281.253-.407.253s-.368-.051-.408-.253l-.489-2.324a.042.042,0,0,0-.039-.037.036.036,0,0,0-.037.037l-.5,2.324c-.036.2-.281.253-.407.253s-.363-.056-.408-.253l-.843-3.813c-.059-.253.208-.413.4-.413a.424.424,0,0,1,.407.368l.416,2.434a.039.039,0,0,0,.037.037c.02,0,.031-.02.039-.037l.489-2.434a.413.413,0,0,1,.821,0l.5,2.434a.037.037,0,0,0,.036.037c.02,0,.034-.02.039-.037l.407-2.434a.419.419,0,0,1,.408-.368c.2,0,.464.16.407.413Z" transform="translate(-317.71 -113.34)" fill="#f2f2f2"/>
    <path id="Path_314" data-name="Path 314" d="M487.758,167.244l-1.1,2.037a.236.236,0,0,0-.031.107v1.464a.36.36,0,0,1-.377.351.365.365,0,0,1-.374-.357v-1.54l-1.1-2.049a.35.35,0,0,1-.045-.16.371.371,0,0,1,.376-.357.382.382,0,0,1,.337.2l.68,1.262c.034.056.07.107.135.107s.1-.051.126-.107l.694-1.287a.374.374,0,0,1,.332-.2.357.357,0,0,1,.337.514Z" transform="translate(-340.71 -113.296)" fill="#f2f2f2"/>
    <path id="Path_315" data-name="Path 315" d="M502.288,171.124c-1.307,0-1.478-1.5-1.478-2.234s.171-2.31,1.478-2.31,1.47,1.546,1.47,2.31S503.612,171.124,502.288,171.124Zm0-3.92c-.7,0-.708,1.279-.708,1.686,0,.368.02,1.621.708,1.621s.68-1.259.68-1.621S502.988,167.2,502.288,167.2Z" transform="translate(-352.264 -113.196)" fill="#f2f2f2"/>
    <path id="Path_316" data-name="Path 316" d="M537.285,171.248a.374.374,0,0,1-.3-.141l-1.262-1.647H535.7V170.9a.377.377,0,1,1-.753,0v-3.76a.371.371,0,0,1,.377-.357.357.357,0,0,1,.368.357v.972a.244.244,0,0,0,.236.23l.941-1.279a.367.367,0,0,1,.632.216.28.28,0,0,1-.051.177l-1.071,1.405a.281.281,0,0,0-.07.157.154.154,0,0,0,.02.1l1.242,1.6a.309.309,0,0,1,.082.177.349.349,0,0,1-.371.36Z" transform="translate(-376.81 -113.34)" fill="#f2f2f2"/>
    <path id="Path_317" data-name="Path 317" d="M155.136,171.181a.438.438,0,0,1-.413-.365l-.138-.385c-.031-.124-.09-.225-.216-.225h-1l-.222.61a.438.438,0,0,1-.41.365.36.36,0,0,1-.388-.436l1.177-3.844a.4.4,0,0,1,.4-.245.413.413,0,0,1,.41.245l1.177,3.839a.36.36,0,0,1-.382.441Zm-1.169-3.476a.038.038,0,0,0-.037-.039.044.044,0,0,0-.039.039l-.323,1.405c-.084.332,0,.407.11.407h.733Z" transform="translate(-101.721 -113.25)" fill="#f2f2f2"/>
    <path id="Path_318" data-name="Path 318" d="M292.72,171.3a.354.354,0,0,1-.315-.16l-.843-1.621a.242.242,0,0,0-.222-.118h-.281v1.523a.379.379,0,1,1-.759,0v-3.743a.377.377,0,0,1,.385-.36h.9c.475,0,1.369.031,1.369,1.228a1.2,1.2,0,0,1-.725,1.245c.261.5.514,1.017.8,1.518a.3.3,0,0,1,.037.129A.36.36,0,0,1,292.72,171.3Zm-1.152-3.867h-.483v1.144a.259.259,0,0,0,.253.256h.152c.433,0,.722-.045.733-.77C292.219,167.5,291.938,167.432,291.567,167.432Z" transform="translate(-200.912 -113.369)" fill="#f2f2f2"/>
    <path id="Path_319" data-name="Path 319" d="M520.551,171.282a.354.354,0,0,1-.318-.163l-.843-1.619a.239.239,0,0,0-.211-.11H518.9v1.523a.379.379,0,1,1-.759,0V167.16a.379.379,0,0,1,.385-.36h.9c.478,0,1.371.034,1.371,1.228a1.2,1.2,0,0,1-.728,1.248c.264.5.514,1.015.8,1.518a.258.258,0,0,1,.039.129A.363.363,0,0,1,520.551,171.282Zm-1.155-3.864h-.483v1.141a.256.256,0,0,0,.25.259h.155c.43,0,.722-.045.733-.77C520.051,167.483,519.77,167.418,519.4,167.418Z" transform="translate(-364.724 -113.354)" fill="#f2f2f2"/>
    <path id="Path_320" data-name="Path 320" d="M45.319,36.06S42,37.046,42,41.978l2.1.986,2.616-.393s0-4.735-1.405-6.511Z" transform="translate(-22.389 -19.355)" fill="#f2f2f2"/>
    <path id="Path_321" data-name="Path 321" d="M55.68,36.77s3,.506,3.9,5.533c.045.256-.281-.1-.239.185,0,0-.756-4.142-3.653-5.719Z" transform="translate(-32.225 -19.865)" fill="#f2f2f2"/>
    <path id="Path_322" data-name="Path 322" d="M22.716,60.75l4.072.877v4.384l-6.981,5.48V67.326H18.45l4.266-6.576Z" transform="translate(-5.457 -37.107)" fill="#f2f2f2"/>
    <path id="Path_323" data-name="Path 323" d="M62.171,64.65s-6.334,2.484.776,6.137C62.947,70.787,58.681,67.865,62.171,64.65Z" transform="translate(-35.023 -39.911)" fill="#f2f2f2"/>
    <path id="Path_324" data-name="Path 324" d="M68.08,70.11s-1.057,1.776.388,2.63C68.468,72.74,66.012,71.571,68.08,70.11Z" transform="translate(-40.545 -43.836)" fill="#f2f2f2"/>
    <path id="Path_325" data-name="Path 325" d="M53.822,9.14l-.582,1.9v5.772l.509.093" transform="translate(-30.47)" fill="#f2f2f2"/>
    <path id="Path_326" data-name="Path 326" d="M52.286,32.782s-.205-1.52.481-1.512H53s.537.146.422,1.529a1.034,1.034,0,0,1-1.124-.017Z" transform="translate(-29.764 -15.911)" fill="#f2f2f2"/>
    <path id="Path_327" data-name="Path 327" d="M53.05,27.258a.514.514,0,1,0-.452-.511A.483.483,0,0,0,53.05,27.258Z" transform="translate(-30.008 -12.29)" fill="#f2f2f2"/>
    <path id="Path_328" data-name="Path 328" d="M68,117.25s1.939-1.023,3.749,1.315l-.065,12.056S71.774,116.612,68,117.25Z" transform="translate(-41.083 -77.569)" fill="#f2f2f2"/>
    <path id="Path_329" data-name="Path 329" d="M10.86,89.973l.388,1.461,1.922.731v17.572l10.052-5.991V86.131l11.763,5.376,1.383-2.273L22.955,83.453V82.63l14.034,5.955.129-.95L22.9,81.68h-.711Z" transform="translate(0 -52.155)" fill="#f2f2f2"/>
    <path id="Path_330" data-name="Path 330" d="M11.84,172.724l1.1,1.023.84,1.059,9.437-4.128,1.1-.365V167.1l12.927,4.749.323-1.023L24.25,166.44h-.933Z" transform="translate(-0.705 -113.096)" fill="#f2f2f2"/>
    <path id="Path_331" data-name="Path 331" d="M56.33,61.85l.031.177,4.019-.646,4.586,5.407v-1.38L60.453,61.19Z" transform="translate(-32.692 -37.423)" fill="#f2f2f2"/>
  </g>
</svg>
