<svg id="Layer_1" data-name="Layer 1" xmlns="http://www.w3.org/2000/svg" viewBox="0 0 300 300"><defs><style>.cls-1{fill:#2d2d2d;}</style></defs><title>Refresh-Dark</title><path class="cls-1" d="M42.25,132.45,1.87,171.92A3.54,3.54,0,0,0,4.34,178H85.11a3.54,3.54,0,0,0,2.48-6.07L47.2,132.45A3.55,3.55,0,0,0,42.25,132.45Z"/><path class="cls-1" d="M270.57,185a3.59,3.59,0,0,1,3.79,3.87c-7.8,55.29-60.39,98.18-123.91,98.18-67.55,0-122.75-48.52-124.84-108.88a3.63,3.63,0,0,1,3.82-3.55H59.7a3.65,3.65,0,0,1,3.8,3.28C65.41,219.63,103.68,253,150.45,253c43,0,78.79-28.19,85.79-65.11A3.71,3.71,0,0,1,240,185Z"/><path class="cls-1" d="M257.75,169l40.38-39.46a3.54,3.54,0,0,0-2.47-6.08H214.89a3.55,3.55,0,0,0-2.48,6.08L252.8,169A3.53,3.53,0,0,0,257.75,169Z"/><path class="cls-1" d="M29.43,116.36a3.59,3.59,0,0,1-3.79-3.87C33.44,57.2,86,14.31,149.55,14.31c67.55,0,122.75,48.52,124.84,108.88a3.63,3.63,0,0,1-3.82,3.55H240.3a3.65,3.65,0,0,1-3.8-3.28c-1.91-41.69-40.18-75.06-86.95-75.06-43,0-78.79,28.19-85.79,65.11A3.71,3.71,0,0,1,60,116.36Z"/></svg>