<svg id="Layer_1" data-name="Layer 1" xmlns="http://www.w3.org/2000/svg" viewBox="0 0 300 300"><defs><style>.cls-1{fill:#2d2d2d;}</style></defs><title>Setting-Dark</title><path class="cls-1" d="M292,164.11V135.89a5.39,5.39,0,0,0-5.39-5.39H252.93a5.4,5.4,0,0,1-5.24-4.15,99.63,99.63,0,0,0-11.88-28.7,5.38,5.38,0,0,1,.76-6.64l23.82-23.82a5.4,5.4,0,0,0,0-7.62l-20-20a5.38,5.38,0,0,0-7.62,0L209,63.43a5.38,5.38,0,0,1-6.64.76,99.63,99.63,0,0,0-28.7-11.88,5.4,5.4,0,0,1-4.15-5.24V13.39A5.39,5.39,0,0,0,164.11,8H135.89a5.39,5.39,0,0,0-5.39,5.39V47.07a5.4,5.4,0,0,1-4.15,5.24,99.63,99.63,0,0,0-28.7,11.88A5.38,5.38,0,0,1,91,63.43L67.19,39.61a5.38,5.38,0,0,0-7.62,0l-20,20a5.4,5.4,0,0,0,0,7.62L63.43,91a5.38,5.38,0,0,1,.76,6.64,99.63,99.63,0,0,0-11.88,28.7,5.4,5.4,0,0,1-5.24,4.15H13.39A5.39,5.39,0,0,0,8,135.89v28.22a5.39,5.39,0,0,0,5.39,5.39H47.07a5.4,5.4,0,0,1,5.24,4.15,99.63,99.63,0,0,0,11.88,28.7,5.38,5.38,0,0,1-.76,6.64L39.61,232.81a5.4,5.4,0,0,0,0,7.62l20,20a5.4,5.4,0,0,0,7.62,0L91,236.57a5.38,5.38,0,0,1,6.64-.76,99.63,99.63,0,0,0,28.7,11.88,5.4,5.4,0,0,1,4.15,5.24v33.68a5.39,5.39,0,0,0,5.39,5.39h28.22a5.39,5.39,0,0,0,5.39-5.39V252.93a5.4,5.4,0,0,1,4.15-5.24,99.63,99.63,0,0,0,28.7-11.88,5.38,5.38,0,0,1,6.64.76l23.82,23.82a5.4,5.4,0,0,0,7.62,0l20-20a5.4,5.4,0,0,0,0-7.62L236.57,209a5.38,5.38,0,0,1-.76-6.64,99.63,99.63,0,0,0,11.88-28.7,5.4,5.4,0,0,1,5.24-4.15h33.68A5.39,5.39,0,0,0,292,164.11Zm-83.39,5.39a60.68,60.68,0,0,1-3.39,8.14,61.84,61.84,0,0,1-27.58,27.58,60.68,60.68,0,0,1-8.14,3.39,62.12,62.12,0,0,1-39,0,60.68,60.68,0,0,1-8.14-3.39,61.84,61.84,0,0,1-27.58-27.58,60.68,60.68,0,0,1-3.39-8.14,62.12,62.12,0,0,1,0-39,60.68,60.68,0,0,1,3.39-8.14,61.84,61.84,0,0,1,27.58-27.58,60.68,60.68,0,0,1,8.14-3.39,62.12,62.12,0,0,1,39,0,60.68,60.68,0,0,1,8.14,3.39,61.84,61.84,0,0,1,27.58,27.58,60.68,60.68,0,0,1,3.39,8.14,62.12,62.12,0,0,1,0,39Z"/></svg>